<?xml version="1.0" standalone="no"?><!DOCTYPE svg PUBLIC "-//W3C//DTD SVG 1.1//EN" "http://www.w3.org/Graphics/SVG/1.1/DTD/svg11.dtd"><svg t="1591596062230" class="icon" viewBox="0 0 1024 1024" version="1.1" xmlns="http://www.w3.org/2000/svg" p-id="16340" xmlns:xlink="http://www.w3.org/1999/xlink" width="16" height="16"><defs><style type="text/css"></style></defs><path d="M528 269.44v76.16h185.6v72.32H528v208.64h185.6v88.32H528v68.48h261.12V549.12h-188.8v-63.36h188.8V269.44zM310.4 345.6H496v-76.16H234.88v216.32h188.8v63.36h-188.8v234.24H496v-68.48H310.4v-88.32H496V417.92H310.4z" fill="#DD0E1C" p-id="16341"></path><path d="M512 32C247.04 32 32 247.04 32 512s215.04 480 480 480 480-215.04 480-480S776.96 32 512 32z m0 897.92C280.96 929.92 94.08 742.4 94.08 512 94.08 280.96 281.6 94.08 512 94.08c231.04 0 417.92 187.52 417.92 417.92 0 231.04-186.88 417.92-417.92 417.92z" fill="#DD0E1C" p-id="16342"></path></svg>