<?xml version="1.0" standalone="no"?><!DOCTYPE svg PUBLIC "-//W3C//DTD SVG 1.1//EN" "http://www.w3.org/Graphics/SVG/1.1/DTD/svg11.dtd"><svg t="1591588675534" class="icon" viewBox="0 0 1024 1024" version="1.1" xmlns="http://www.w3.org/2000/svg" p-id="15335" xmlns:xlink="http://www.w3.org/1999/xlink" width="16" height="16"><defs><style type="text/css"></style></defs><path d="M885.82 400.744L591.038 106.668c-61.055-61.055-134.686-57.247-160.67-52.991C198.564 91.82 21.798 293 21.798 535.59c0 269.757 218.653 488.41 488.378 488.41 263.389 0 478.01-210.11 488.058-471.13 0.096-3.072-0.896-12.032-7.36-16.096-7.84-4.8-23.296-3.008-23.296-3.008H778.557s-17.888 0-23.488 2.624c-3.584 1.632-8.64 5.536-8.64 5.536L516.096 772.163a9.728 9.728 0 0 1-13.568 0l-231.58-231.55a9.6 9.6 0 0 1 0-13.567l231.58-231.58a9.536 9.536 0 0 1 13.568 0L728.573 507.91s11.2 9.856 21.472 12.608c9.76 2.592 24.064-7.264 24.064-7.264l111.71-112.51z" fill="#005BAB" p-id="15336"></path><path d="M993.37 249.801L835.26 92.428C658.654-77.938 454.497 39.373 454.497 39.373s86.719-46.591 197.693 70.11l261.18 262.365 77.088-76.255s9.312-11.616 11.456-22.144c2.048-9.856-8.544-23.648-8.544-23.648z" fill="#005BAB" p-id="15337"></path></svg>