<?xml version="1.0" standalone="no"?><!DOCTYPE svg PUBLIC "-//W3C//DTD SVG 1.1//EN" "http://www.w3.org/Graphics/SVG/1.1/DTD/svg11.dtd"><svg t="1591758146485" class="icon" viewBox="0 0 1024 1024" version="1.1" xmlns="http://www.w3.org/2000/svg" p-id="43090" xmlns:xlink="http://www.w3.org/1999/xlink" width="16" height="16"><defs><style type="text/css"></style></defs><path d="M998.058667 576.170667c-3.413333-18.432-14.336-30.037333-27.989334-29.354667h-2.730666c-40.277333 0-72.362667-32.768-72.362667-72.362667 0-12.970667 6.144-27.306667 6.144-27.989333 6.826667-15.701333 1.365333-34.816-12.288-45.056l-0.682667-0.682667-73.045333-40.277333-1.365333-0.682667c-4.778667-2.048-9.557333-3.413333-15.018667-3.413333-10.922667 0-21.845333 4.778667-29.354667 11.605333-8.874667 8.874667-35.498667 32.085333-57.344 32.085334s-49.152-23.210667-57.344-32.768c-7.509333-7.509333-18.432-12.288-29.354666-12.288-5.461333 0-10.24 0.682667-15.018667 2.730666l-0.682667 0.682667-75.093333 41.642667-2.048 2.048c-14.336 9.557333-19.797333 29.354667-12.288 45.056 0 0 6.144 15.018667 6.144 27.989333 0 40.277333-32.768 72.362667-72.362667 72.362667h-2.730666c-13.653333 0-24.576 10.922667-27.989334 29.354666 0 1.365333-6.144 32.768-6.144 57.344 0 23.893333 5.461333 53.930667 6.144 57.344 3.413333 17.749333 14.336 29.354667 27.989334 29.354667h2.730666c40.277333 0 72.362667 32.768 72.362667 72.362667 0 12.970667-6.144 27.306667-6.144 27.989333-6.826667 15.701333-1.365333 34.816 12.288 45.056l0.682667 0.682667 71.68 39.594666 0.682666 0.682667c4.778667 2.048 9.557333 3.413333 15.018667 3.413333 11.605333 0 22.528-4.778667 29.354667-12.288 10.24-10.922667 38.229333-34.133333 58.709333-34.133333 22.528 0 50.517333 25.941333 58.709333 34.816 6.826667 8.192 18.432 12.970667 29.354667 12.970667 5.461333 0 10.24-0.682667 15.018667-2.730667l0.682666-0.682667 73.728-40.96 0.682667-0.682666c14.336-9.557333 19.797333-29.354667 12.288-45.056 0 0-6.144-15.018667-6.144-27.989334 0-40.277333 32.768-72.362667 72.362667-72.362666h2.730666c13.653333 0 24.576-11.605333 27.989334-29.354667 0 0 6.144-32.085333 6.144-57.344 2.048-25.941333-4.096-57.344-4.096-58.709333z m-34.133334 58.026666c0 17.066667-3.413333 38.912-4.778666 47.104-27.989333 2.048-53.930667 14.336-73.045334 34.816-19.797333 21.162667-31.402667 48.469333-31.402666 77.824 0 17.066667 6.144 34.133333 8.192 40.96l-65.536 36.181334c-2.048-2.730667-12.288-12.288-25.941334-22.528-21.845333-16.384-43.008-24.576-62.805333-24.576-19.114667 0-40.277333 8.192-62.122667 23.893333-13.653333 9.557333-23.210667 19.797333-25.258666 22.528l-63.488-35.498667c2.730667-6.826667 8.192-23.210667 8.192-40.96 0-29.354667-10.922667-56.661333-31.402667-77.824-19.797333-20.48-45.056-32.768-73.045333-34.816-1.365333-8.192-4.778667-30.037333-4.778667-47.104s3.413333-38.912 4.778667-47.104c27.989333-2.048 53.930667-14.336 73.045333-34.816 19.797333-21.162667 31.402667-48.469333 31.402667-77.824 0-17.066667-6.144-34.133333-8.192-40.96l67.584-36.864h0.682666c2.048 2.048 11.605333 11.605333 25.258667 21.845334 21.845333 15.018667 42.325333 23.210667 60.757333 23.210666s38.912-7.509333 60.757334-22.528c12.970667-9.557333 23.210667-19.114667 25.258666-21.162666h0.682667l64.853333 36.181333c-2.730667 6.826667-8.192 23.893333-8.192 40.96 0 29.354667 10.922667 56.661333 31.402667 77.824 19.797333 20.48 45.738667 32.768 73.045333 34.816 0.682667 7.509333 4.096 29.354667 4.096 46.421333z m0 0" p-id="43091" fill="#257bf6"></path><path d="M709.290667 529.749333c-57.344 0-103.765333 46.421333-103.765334 103.765334 0 57.344 46.421333 103.765333 103.765334 103.765333 57.344 0 103.765333-46.421333 103.765333-103.765333 0-57.344-46.421333-103.765333-103.765333-103.765334z m0 167.253334c-34.816 0-63.488-28.672-63.488-63.488 0-34.816 28.672-63.488 63.488-63.488 34.816 0 63.488 28.672 63.488 63.488 0 34.816-28.672 63.488-63.488 63.488z m0 0" p-id="43092" fill="#257bf6"></path><path d="M435.541333 802.816H134.485333c-64.853333 0-117.418667-52.565333-117.418666-117.418667V266.24c0-64.853333 52.565333-117.418667 117.418666-117.418667h661.504c64.853333 0 117.418667 52.565333 117.418667 117.418667v61.44c0 10.24-8.874667 19.114667-19.114667 19.114667s-19.114667-8.874667-19.114666-19.114667v-61.44c0-43.690667-35.498667-78.506667-78.506667-78.506667h-662.186667c-43.690667 0-78.506667 35.498667-78.506666 78.506667v419.157333c0 43.690667 35.498667 78.506667 78.506666 78.506667h301.056c10.24 0 19.114667 8.874667 19.114667 19.114667s-8.874667 19.797333-19.114667 19.797333z" p-id="43093" fill="#257bf6"></path><path d="M771.413333 296.277333H146.090667c-9.557333 0-17.749333-7.509333-17.749334-17.749333v-3.413333c0-9.557333 7.509333-17.749333 17.749334-17.749334H771.413333c9.557333 0 17.749333 7.509333 17.749334 17.749334v3.413333c-0.682667 9.557333-8.192 17.749333-17.749334 17.749333zM344.064 375.466667h-197.973333c-9.557333 0-17.749333-7.509333-17.749334-17.749334v-3.413333c0-9.557333 7.509333-17.749333 17.749334-17.749333h197.973333c9.557333 0 17.749333 7.509333 17.749333 17.749333v3.413333c-0.682667 9.557333-8.192 17.749333-17.749333 17.749334z" p-id="43094" fill="#257bf6"></path></svg>