<?xml version="1.0" standalone="no"?><!DOCTYPE svg PUBLIC "-//W3C//DTD SVG 1.1//EN" "http://www.w3.org/Graphics/SVG/1.1/DTD/svg11.dtd"><svg t="1591760119674" class="icon" viewBox="0 0 1024 1024" version="1.1" xmlns="http://www.w3.org/2000/svg" p-id="47964" xmlns:xlink="http://www.w3.org/1999/xlink" width="16" height="16"><defs><style type="text/css"></style></defs><path d="M509.7 546.9c-11.6 0-23.2-2.9-33.7-8.7l-374.5-206c-12.2-6.7-19.7-19.6-19.5-33.5 0.2-13.9 8-26.5 20.4-32.9l381-196c20.3-10.5 44.6-10.3 64.8 0.4l369.5 195.6c12.2 6.5 19.9 19.1 20 33 0.1 13.9-7.4 26.6-19.5 33.3L543.5 538.2c-10.6 5.8-22.2 8.7-33.8 8.7zM138 299.5l360.2 198.1c7.2 4 15.7 3.9 22.9 0L882 299.2 526.6 111.1c-6.9-3.6-15.1-3.7-22-0.1L138 299.5z m-14.4 7.4zM113 286.3h0.2-0.2z" p-id="47965" fill="#257bf6"></path><path d="M509.9 781.8c-11.6 0-23.2-2.9-33.7-8.7L77.8 554c-11.2-6.2-15.3-20.2-9.1-31.4 6.2-11.2 20.2-15.3 31.4-9.1l398.4 219.1c7.2 4 15.7 3.9 22.9 0l398.4-219.1c11.2-6.1 25.3-2.1 31.4 9.1 6.2 11.2 2.1 25.3-9.1 31.4L543.6 773.1c-10.5 5.8-22.1 8.7-33.7 8.7z" p-id="47966" fill="#257bf6"></path><path d="M509.9 781.8c-11.6 0-23.2-2.9-33.7-8.7L77.8 554c-11.2-6.2-15.3-20.2-9.1-31.4 6.2-11.2 20.2-15.3 31.4-9.1l398.4 219.1c7.2 4 15.7 3.9 22.9 0l398.4-219.1c11.2-6.1 25.3-2.1 31.4 9.1 6.2 11.2 2.1 25.3-9.1 31.4L543.6 773.1c-10.5 5.8-22.1 8.7-33.7 8.7z" p-id="47967" fill="#257bf6"></path><path d="M509.9 963c-11.6 0-23.2-2.9-33.7-8.7L77.8 735.2c-11.2-6.2-15.3-20.2-9.1-31.4 6.2-11.2 20.2-15.3 31.4-9.1l398.4 219.1c7.2 4 15.7 4 22.9 0l398.3-219.1c11.2-6.2 25.3-2 31.4 9.1 6.2 11.2 2.1 25.3-9.1 31.4L543.6 954.3c-10.5 5.8-22.1 8.7-33.7 8.7z" p-id="47968" fill="#257bf6"></path></svg>