<?xml version="1.0" standalone="no"?><!DOCTYPE svg PUBLIC "-//W3C//DTD SVG 1.1//EN" "http://www.w3.org/Graphics/SVG/1.1/DTD/svg11.dtd"><svg t="1591760541513" class="icon" viewBox="0 0 1024 1024" version="1.1" xmlns="http://www.w3.org/2000/svg" p-id="58641" xmlns:xlink="http://www.w3.org/1999/xlink" width="16" height="16"><defs><style type="text/css"></style></defs><path d="M876.202667 418.588444H147.797333a38.115556 38.115556 0 0 1-36.181333-24.803555 37.148444 37.148444 0 0 1 11.377778-41.927111l376.604444-308.906667c6.656-5.688889 17.180444-5.688889 23.893334 0l376.547555 308.906667c12.344889 10.467556 17.123556 26.680889 11.377778 41.927111a36.067556 36.067556 0 0 1-35.271111 24.803555zM512 80.099556l-364.202667 300.373333 0.967111 1.877333h728.348445l12.401778-16.213333-11.377778 14.279111L512 80.099556z" fill="#257bf6" p-id="58642"></path><path d="M720.782222 418.588444H303.217778c-7.623111 0-15.246222-4.778667-17.180445-12.401777-2.844444-7.623111 0-15.246222 5.688889-20.992l208.782222-171.576889c6.712889-5.688889 17.237333-5.688889 23.893334 0l208.782222 171.576889c5.688889 4.778667 8.533333 13.368889 5.688889 20.992a18.659556 18.659556 0 0 1-18.090667 12.401777z m-366.08-37.205333h314.595556L512 252.700444 354.702222 381.383111z m484.295111 507.221333H185.002667a18.090667 18.090667 0 0 1-18.147556-18.147555v-102.968889c0-10.467556 8.590222-18.090667 18.147556-18.090667h653.994666c10.467556 0 18.147556 8.533333 18.147556 18.090667v102.968889a18.090667 18.090667 0 0 1-18.147556 18.147555z m-634.88-37.205333H820.906667V785.635556H204.060444v65.763555z m691.143111 134.428445H128.739556a18.090667 18.090667 0 0 1-18.090667-18.147556 18.773333 18.773333 0 0 1 18.090667-18.090667h767.431111c10.524444 0 18.147556 8.533333 18.147555 18.090667s-8.533333 18.147556-19.057778 18.147556z" fill="#257bf6" p-id="58643"></path><path d="M266.012444 785.635556a18.090667 18.090667 0 0 1-18.090666-18.147556V481.507556a18.090667 18.090667 0 1 1 36.238222 0v285.013333c0 10.524444-8.590222 19.114667-18.147556 19.114667z m164.010667 0a18.090667 18.090667 0 0 1-18.147555-18.147556V481.507556a18.090667 18.090667 0 1 1 36.238222 0v285.013333c0 10.524444-7.623111 19.114667-18.090667 19.114667z m163.953778 0a18.090667 18.090667 0 0 1-18.090667-18.147556V481.507556a18.090667 18.090667 0 1 1 36.238222 0v285.013333a17.749333 17.749333 0 0 1-18.147555 19.114667z m164.010667 0a18.090667 18.090667 0 0 1-18.147556-18.147556V481.507556a18.090667 18.090667 0 1 1 36.238222 0v285.013333a17.749333 17.749333 0 0 1-18.090666 19.114667z" fill="#257bf6" p-id="58644"></path></svg>