<?xml version="1.0" standalone="no"?><!DOCTYPE svg PUBLIC "-//W3C//DTD SVG 1.1//EN" "http://www.w3.org/Graphics/SVG/1.1/DTD/svg11.dtd"><svg t="1591760341623" class="icon" viewBox="0 0 1024 1024" version="1.1" xmlns="http://www.w3.org/2000/svg" p-id="53681" xmlns:xlink="http://www.w3.org/1999/xlink" width="16" height="16"><defs><style type="text/css"></style></defs><path d="M692.062 627.793c0.488-16.585-14.386-17.963-28.37-17.915-15.806 0.049-31.611 0.068-47.417 0.077v-0.083c-7.11 0.019-14.222 0.034-21.334 0.062-30.074 0.003-60.148 0.002-90.222-0.036-13.004-0.015-29.492-2.171-28.872 15.35-0.487 16.585 14.385 17.963 28.37 17.916 26.128-0.081 52.255-0.09 78.381-0.081v0.025c6.775 0 13.552 0.009 20.328 0.009 4.449 0.015 8.9 0.033 13.35 0.045v-0.04c15.639 0.006 31.276 0.002 46.915 0.022 13.003 0.014 29.492 2.169 28.871-15.351zM692.062 751.832c0.488-16.584-14.386-17.962-28.37-17.916a17844.3 17844.3 0 0 1-47.417 0.077v-0.083c-7.11 0.019-14.222 0.035-21.334 0.063-30.074 0.002-60.148 0-90.222-0.036-13.004-0.017-29.492-2.172-28.872 15.348-0.487 16.586 14.385 17.963 28.37 17.917 26.128-0.082 52.255-0.091 78.381-0.082v0.025c6.775 0 13.552 0.009 20.328 0.009 4.449 0.016 8.9 0.034 13.35 0.046v-0.038c15.639 0.004 31.276 0 46.915 0.02 13.003 0.014 29.492 2.17 28.871-15.35z" p-id="53682" fill="#257bf6"></path><path d="M294.201 229.56c2.089-21.456 2.958-39.161 5.689-56.578 6.174-39.409 35.754-66.906 75.539-67.054 170.446-0.631 340.901-0.705 511.346 0.11 40.008 0.189 72.865 41.701 72.891 87.983 0.121 201.845-0.367 403.696 0.521 605.539 0.199 44.043-14.298 80.605-51.883 101.698-23.906 13.415-53.67 22.612-80.909 22.86-214.387 1.935-428.798 2.146-643.19 0.89-71.318-0.416-124.694-59.961-124.715-132.525-0.047-160.581 1.843-321.196-1.184-481.724-0.896-47.649 38.242-82.783 80.338-81.552 50.974 1.494 102.026 0.353 155.557 0.353z m4.249 649.56c1.115 3.476 2.229 6.957 3.342 10.434 24.243 0 48.485-0.111 72.728 0.022 140.713 0.756 281.431 1.15 422.137 2.707 31.264 0.346 59.25-6.637 87.048-20.736 29.479-14.955 43.548-35.344 43.391-69.436-0.91-199.988-0.405-399.987-0.484-599.981-0.017-43.2-20.346-63.151-64.355-63.178-154.255-0.084-308.513-0.074-462.77-0.016-45.738 0.016-59.105 13.383-59.105 59.013-0.008 187.436-0.453 374.877 0.452 562.309 0.214 45.023-1.606 87.892-42.384 118.862z m8.645-345.611c0-81.621-0.47-163.252 0.342-244.867 0.198-19.658-5.932-26.935-26.09-26.362-43.021 1.22-86.106-0.126-129.152 0.537-36.085 0.552-59.384 21.718-59.447 54.443-0.308 162.351-0.289 324.698 0.034 487.05 0.066 32.132 18.33 56.484 44.194 70.514 77.987 42.302 166.194-11.538 169.528-101.851 2.945-79.716 0.617-159.634 0.591-239.464z" p-id="53683" fill="#257bf6"></path><path d="M805.555 237.758c-29.394 0.092-58.787 0.096-88.18 0.083-40.811-0.184-81.623-0.186-122.434-0.025-30.074 0.002-60.148 0.001-90.222-0.037-13.004-0.016-29.492-2.171-28.872 15.349-0.487 16.584 14.385 17.962 28.37 17.916 29.395-0.092 58.789-0.096 88.181-0.083 40.811 0.184 81.622 0.186 122.433 0.025 30.074-0.003 60.149-0.001 90.222 0.036 13.005 0.016 29.493 2.172 28.872-15.349 0.488-16.583-14.386-17.961-28.37-17.915zM805.555 361.798c-29.394 0.092-58.787 0.096-88.18 0.083a14441.38 14441.38 0 0 0-122.434-0.025c-30.074 0.002-60.148 0-90.222-0.037-13.004-0.015-29.492-2.171-28.872 15.349-0.487 16.584 14.385 17.962 28.37 17.916 29.395-0.092 58.789-0.096 88.181-0.083 40.811 0.184 81.622 0.186 122.433 0.025 30.074-0.003 60.149-0.001 90.222 0.036 13.005 0.016 29.493 2.171 28.872-15.349 0.488-16.584-14.386-17.962-28.37-17.915zM805.555 485.837c-29.394 0.093-58.787 0.096-88.18 0.084a14441.38 14441.38 0 0 0-122.434-0.026c-30.074 0.002-60.148 0-90.222-0.037-13.004-0.015-29.492-2.171-28.872 15.349-0.487 16.585 14.385 17.963 28.37 17.916 29.395-0.092 58.789-0.096 88.181-0.083 40.811 0.185 81.622 0.187 122.433 0.027 30.074-0.004 60.149-0.002 90.222 0.036 13.005 0.014 29.493 2.171 28.872-15.351 0.488-16.583-14.386-17.961-28.37-17.915z" p-id="53684" fill="#257bf6"></path></svg>