<?xml version="1.0" standalone="no"?><!DOCTYPE svg PUBLIC "-//W3C//DTD SVG 1.1//EN" "http://www.w3.org/Graphics/SVG/1.1/DTD/svg11.dtd"><svg t="1591760649551" class="icon" viewBox="0 0 1024 1024" version="1.1" xmlns="http://www.w3.org/2000/svg" p-id="61373" xmlns:xlink="http://www.w3.org/1999/xlink" width="16" height="16"><defs><style type="text/css"></style></defs><path d="M512 0A512 512 0 1 0 1024 512 512 512 0 0 0 512 0z m0 984.916031A472.916031 472.916031 0 1 1 984.916031 512 472.916031 472.916031 0 0 1 512 984.916031z" p-id="61374" fill="#257bf6"></path><path d="M851.248855 506.528244l-99.273282 77.38626 48.464122 21.105343c-3.126718 9.380153-5.471756 17.978626-8.598474 26.5771C741.032061 762.919084 589.38626 836.396947 450.247328 805.129771c-101.618321-22.668702-171.969466-85.984733-211.835114-181.349618-8.598473-20.323664-24.232061-29.703817-39.865649-42.210687l-5.471756 30.485496a22.668702 22.668702 0 0 0-0.781679 5.471756 51.59084 51.59084 0 0 0 1.563359 14.851908c44.555725 111.780153 125.068702 182.912977 241.538931 214.961832 15.633588 3.908397 31.267176 6.253435 47.682443 9.380153h52.372519l7.816794-1.563359a347.847328 347.847328 0 0 0 126.632061-34.393893c78.949618-39.865649 132.103817-103.181679 164.934351-183.694657 7.816794-18.760305 9.380153-20.323664 28.922137-18.760305h25.79542zM240.757252 429.923664c-10.161832-5.471756-10.943511-8.598473-7.035115-18.760305 21.105344-49.245802 49.245802-94.583206 90.67481-128.977099C406.473282 214.961832 501.056489 200.891603 601.11145 226.687023S751.975573 310.326718 789.496183 393.966412a171.187786 171.187786 0 0 0 41.429008 53.935878c2.345038-10.943511 4.690076-21.105344 6.253435-31.267175a53.154198 53.154198 0 0 0-1.563359-22.668703 331.432061 331.432061 0 0 0-111.780152-153.990839c-71.132824-54.717557-152.427481-75.822901-240.757252-67.224428S304.854962 224.341985 245.447328 303.291603a501.056489 501.056489 0 0 0-51.590839 91.456489c-9.380153 19.541985-17.978626 21.887023-37.520611 14.070229l-20.323664-8.598474L177.441221 523.725191l99.273283-76.60458z" p-id="61375" fill="#257bf6"></path><path d="M562.027481 530.760305h14.851908a56.280916 56.280916 0 0 0 53.154199-21.887023c-17.978626-21.105344-42.992366-20.323664-68.787786-21.105343l12.50687-24.232061 43.774046-74.259542a36.738931 36.738931 0 0 0 4.690076-16.415267c0-9.380153-1.563359-19.541985-2.345038-29.703817-17.978626 8.598473-34.393893 16.415267-44.555725 35.175572-17.196947 31.267176-35.957252 61.752672-53.935878 92.238168l-6.253435 10.943512c-18.760305-31.267176-37.520611-60.970992-54.717558-91.456489s-35.957252-35.957252-54.717557-55.499236c2.345038 14.851908 3.126718 27.358779 6.253435 39.865648a169.624427 169.624427 0 0 0 12.50687 36.738932c9.380153 18.760305 21.105344 36.738931 32.048855 55.499236l12.506871 21.887023c-28.140458-0.781679-53.154198 0.781679-72.696184 21.887023 14.851908 13.28855 30.485496 23.450382 52.372519 21.105344a71.132824 71.132824 0 0 1 25.79542 0.781679c5.471756 1.563359 10.161832 7.816794 14.851909 11.725191L474.479389 554.992366a12.50687 12.50687 0 0 1-6.253435 0.78168 147.737405 147.737405 0 0 1-22.668702 0c-21.105344-3.126718-35.957252 8.598473-50.80916 21.105343a106.308397 106.308397 0 0 1 13.288549 7.816794 48.464122 48.464122 0 0 0 36.738932 10.943512h26.577099c12.50687 0.781679 16.415267 4.690076 17.978626 17.196946a123.505344 123.505344 0 0 1 1.563358 23.450382c-1.563359 21.105344 8.598473 35.957252 23.450382 50.027481a93.019847 93.019847 0 0 1 9.380153-10.161832 40.647328 40.647328 0 0 0 14.851908-35.175573c0-9.380153 0.781679-19.541985 1.563359-28.922137a14.851908 14.851908 0 0 1 15.633588-15.633588 121.941985 121.941985 0 0 1 22.668702 0c21.105344 2.345038 39.083969-3.126718 52.372519-21.105343a55.499237 55.499237 0 0 0-48.464122-19.541985A71.132824 71.132824 0 0 1 554.992366 554.992366c-5.471756-1.563359-10.161832-7.816794-14.851908-11.72519l15.633588-11.725191c0.781679-1.563359 3.908397-0.781679 6.253435-0.78168z" p-id="61376" fill="#257bf6"></path></svg>